<?xml version="1.0" encoding="utf-8"?>
<!-- Generator: Adobe Illustrator 21.0.2, SVG Export Plug-In . SVG Version: 6.00 Build 0)  -->
<svg version="1.1" id="Calque_1" xmlns="http://www.w3.org/2000/svg" xmlns:xlink="http://www.w3.org/1999/xlink" x="0px" y="0px"
	 viewBox="0 0 22.7 22.3" style="enable-background:new 0 0 22.7 22.3;" xml:space="preserve">
<title>magnifier_search_zoom_magnifyingglass_lense_find_seo_glass</title>
<path d="M21.9,20.6L17,15.8c3.3-4.1,2.7-10.1-1.4-13.4S5.6-0.3,2.2,3.8s-2.7,10.1,1.4,13.4c3.5,2.8,8.5,2.8,12,0l4.8,4.8
	c0.4,0.4,1,0.4,1.4,0C22.2,21.6,22.2,21,21.9,20.6z M2.2,9.8c0-4.1,3.4-7.5,7.5-7.5c4.1,0,7.5,3.4,7.5,7.5c0,2-0.8,3.9-2.2,5.3
	c0,0,0,0,0,0s0,0,0,0c-2.9,2.9-7.7,2.9-10.6-0.1C2.9,13.7,2.2,11.8,2.2,9.8z"/>
</svg>
